<?xml version="1.0" encoding="UTF-8" standalone="no"?>
<svg
   clip-rule="evenodd"
   fill-rule="evenodd"
   stroke-linejoin="round"
   stroke-miterlimit="2"
   viewBox="0 0 52.913386 52.913386"
   version="1.1"
   id="svg4"
   sodipodi:docname="UpDown.svg"
   inkscape:version="1.2 (dc2aedaf03, 2022-05-15)"
   width="14mm"
   height="14mm"
   xmlns:inkscape="http://www.inkscape.org/namespaces/inkscape"
   xmlns:sodipodi="http://sodipodi.sourceforge.net/DTD/sodipodi-0.dtd"
   xmlns="http://www.w3.org/2000/svg"
   xmlns:svg="http://www.w3.org/2000/svg">
  <defs
     id="defs8" />
  <sodipodi:namedview
     id="namedview6"
     pagecolor="#505050"
     bordercolor="#eeeeee"
     borderopacity="1"
     inkscape:showpageshadow="0"
     inkscape:pageopacity="0"
     inkscape:pagecheckerboard="0"
     inkscape:deskcolor="#505050"
     showgrid="false"
     inkscape:zoom="12.967833"
     inkscape:cx="4.8967317"
     inkscape:cy="31.346794"
     inkscape:window-width="1918"
     inkscape:window-height="1511"
     inkscape:window-x="2552"
     inkscape:window-y="0"
     inkscape:window-maximized="0"
     inkscape:current-layer="svg4"
     showguides="false"
     inkscape:document-units="mm" />
  <path
     d="m 37.734803,30.581059 c -0.978897,-0.01493 -1.91622,0.353156 -2.611653,1.027226 l -8.666457,8.400257 -8.666457,-8.93214 c -0.721889,-0.74024 -1.704566,-1.167234 -2.725039,-1.18343 -0.982677,-0.01882 -1.923779,0.349142 -2.619212,1.019435 -1.466457,1.421413 -1.466457,3.83268 0,5.344093 l 11.338582,11.686182 c 1.466457,1.511415 3.877795,1.585408 5.344252,0.163989 L 40.467402,37.116366 c 1.466457,-1.421413 1.466457,-3.83268 0,-5.344093 -0.72189,-0.744013 -1.708347,-1.174902 -2.732599,-1.191214 z"
     id="path853"
     style="fill:#ffffff;fill-opacity:0.59;stroke-width:3.77947" />
  <path
     d="M 26.396221,3.7837482 C 25.417323,3.7688195 24.48,4.1331251 23.784567,4.8034165 L 12.445985,15.79373 c -1.466457,1.421413 -1.466457,3.832682 0,5.344096 1.466456,1.511414 3.877795,1.585409 5.344251,0.163996 l 8.666457,-8.400263 8.666457,8.932145 c 1.466457,1.511414 3.877795,1.585409 5.344252,0.163997 1.466457,-1.421414 1.466457,-3.832682 0,-5.344096 L 29.128819,4.9674134 C 28.406929,4.2233912 27.420473,3.7962816 26.4,3.7838643 Z"
     id="path2"
     style="fill:#ffffff;fill-opacity:0.59;stroke-width:3.77947" />
</svg>
